# xmcd
#
# Track frame offsets: 
#        150
#        23459
#        42389
#        57949
#        78635
#        97926
#        122239
#        145252
#        169323
#        186837
#        205931
#        227076
#        247691
#
# Disc length: 3597 seconds
#
# Revision: 0
# Processed by: cddbd v1.5.2PL0 Copyright (c) Steve Scherf et al.
# Submitted via: ExactAudioCopyFreeDBPlugin 1.0
#
DISCID=a90e0b0d
DTITLE=No Blues - Kind of No Blues
DYEAR=1900
DGENRE=Fusion
TTITLE0=Last train to Haifa
TTITLE1=Wayack
TTITLE2=Longa No Blues
TTITLE3=Ommi
TTITLE4=Columbus Stockade
TTITLE5=Black Cadillac
TTITLE6=Farewell Shalaniye
TTITLE7=Lumen
TTITLE8=Footsteps
TTITLE9=Ya Dunya
TTITLE10=Hela Hela
TTITLE11=The River
TTITLE12=Le
EXTD=
EXTT0=
EXTT1=
EXTT2=
EXTT3=
EXTT4=
EXTT5=
EXTT6=
EXTT7=
EXTT8=
EXTT9=
EXTT10=
EXTT11=
EXTT12=
PLAYORDER=
